<svg t="1784999765327" class="icon" viewBox="0 0 1024 1024" version="1.1" xmlns="http://www.w3.org/2000/svg" p-id="6606" width="200" height="200"><path d="M64.113778 832h273.066666l63.374223-199.224889 322.901333-331.832889L472.917333 42.666667C450.161778 18.887111 405.219556 0 372.565333 0H63.886222C28.615111 0 0 26.282667 0 58.595556v714.752c0 32.369778 29.127111 58.652444 64.113778 58.652444z m290.417778-727.04c0-48.867556 28.216889-60.871111 63.089777-26.112l213.333334 212.707556c35.328 35.214222 23.552 62.862222-25.258667 62.862222H413.582222a59.164444 59.164444 0 0 1-59.050666-58.993778V104.903111zM384 896l227.214222-79.303111L1024 392.476444 869.717333 242.346667l-412.785777 424.220444L384 896z m111.502222-191.772444l77.198222 75.093333-113.607111 39.537778 36.408889-114.631111z m240.469334 255.772444H32.028444a31.971556 31.971556 0 1 0 0 64h703.943112a31.971556 31.971556 0 1 0 0-64z" fill="#1afa29" p-id="6607"></path></svg>